<svg width="120" height="30" viewBox="0 0 120 30" fill="none" xmlns="http://www.w3.org/2000/svg">
<rect x="0.5" y="0.5" width="119" height="29" rx="9.5" stroke="#ED9615"/>
<path d="M10.128 15.592C9.808 16.104 9.648 16.628 9.648 17.164C9.648 17.748 9.86 18.28 10.284 18.76C10.516 19.032 10.808 19.244 11.16 19.396C11.52 19.548 11.912 19.624 12.336 19.624C12.76 19.624 13.14 19.544 13.476 19.384C14.148 19.056 14.484 18.52 14.484 17.776C14.484 17.496 14.388 17.2 14.196 16.888C14.012 16.576 13.732 16.296 13.356 16.048L11.316 14.68C10.524 14.184 10.128 13.544 10.128 12.76C10.128 12.68 10.132 12.6 10.14 12.52C10.188 11.904 10.432 11.404 10.872 11.02C11.32 10.628 11.916 10.432 12.66 10.432C13.116 10.432 13.668 10.472 14.316 10.552H15.06L14.904 12.316H14.796C14.788 11.9 14.628 11.568 14.316 11.32C14.004 11.064 13.592 10.936 13.08 10.936C12.456 10.936 12.004 11.124 11.724 11.5C11.588 11.692 11.52 11.9 11.52 12.124C11.52 12.348 11.588 12.54 11.724 12.7C11.86 12.852 12.076 13.02 12.372 13.204L14.616 14.668C15.072 14.964 15.428 15.312 15.684 15.712C15.988 16.184 16.14 16.668 16.14 17.164C16.14 17.484 16.072 17.824 15.936 18.184C15.808 18.536 15.592 18.864 15.288 19.168C14.992 19.472 14.608 19.72 14.136 19.912C13.664 20.104 13.14 20.2 12.564 20.2C11.996 20.2 11.48 20.1 11.016 19.9C10.16 19.54 9.616 18.912 9.384 18.016C9.336 17.824 9.312 17.624 9.312 17.416C9.312 16.744 9.548 16.108 10.02 15.508L10.128 15.592ZM25.9566 10.72H25.7526C25.5846 10.72 25.4366 10.776 25.3086 10.888C25.1886 10.992 25.1286 11.124 25.1286 11.284V15.964C25.1286 16.948 24.8206 17.728 24.2046 18.304C23.5886 18.88 22.7446 19.168 21.6726 19.168C20.4086 19.168 19.4406 18.888 18.7686 18.328C18.0966 17.76 17.7606 16.976 17.7606 15.976V11.32C17.7606 11.144 17.6966 11 17.5686 10.888C17.4486 10.776 17.3006 10.72 17.1246 10.72H16.9326V10.6H20.3886V10.72H20.1966C20.0206 10.72 19.8726 10.776 19.7526 10.888C19.6326 10.992 19.5686 11.128 19.5606 11.296V15.88C19.5606 16.728 19.7686 17.4 20.1846 17.896C20.6006 18.392 21.1726 18.64 21.9006 18.64C22.6286 18.64 23.2046 18.408 23.6286 17.944C24.0526 17.472 24.2686 16.836 24.2766 16.036V11.296C24.2766 11.128 24.2126 10.992 24.0846 10.888C23.9646 10.776 23.8166 10.72 23.6406 10.72H23.4486V10.6H25.9566V10.72ZM36.136 10.72C35.936 10.72 35.764 10.792 35.62 10.936C35.476 11.072 35.4 11.24 35.392 11.44V17.632C35.392 18.168 35.428 18.62 35.5 18.988L35.536 19.168H35.428L29.368 13.396V18.16C29.368 18.36 29.44 18.532 29.584 18.676C29.728 18.812 29.9 18.88 30.1 18.88H30.328V19H26.692V18.88H26.908C27.116 18.88 27.292 18.812 27.436 18.676C27.58 18.532 27.652 18.356 27.652 18.148V11.92C27.652 11.392 27.616 10.952 27.544 10.6L27.52 10.42H27.628L33.688 16.192V11.452C33.68 11.244 33.604 11.072 33.46 10.936C33.316 10.792 33.144 10.72 32.944 10.72H32.728V10.6H36.364V10.72H36.136ZM40.3433 11.128H39.8273C39.8113 11.128 39.7993 11.128 39.7913 11.128V18.124C39.7993 18.42 39.9273 18.64 40.1753 18.784C40.2953 18.848 40.4233 18.88 40.5593 18.88H40.7153V19H37.0673V18.88H37.2233C37.5113 18.88 37.7313 18.756 37.8833 18.508C37.9473 18.396 37.9833 18.272 37.9913 18.136V11.476C37.9833 11.268 37.9033 11.092 37.7513 10.948C37.6073 10.796 37.4313 10.72 37.2233 10.72H37.0673V10.6H41.1833C41.9593 10.6 42.6153 10.768 43.1513 11.104C43.4233 11.272 43.6393 11.508 43.7993 11.812C43.9593 12.108 44.0393 12.448 44.0393 12.832C44.0393 13.208 43.9713 13.556 43.8353 13.876C43.7073 14.196 43.4873 14.476 43.1753 14.716C42.8713 14.956 42.5033 15.1 42.0713 15.148C42.5353 15.3 42.9433 15.652 43.2953 16.204C44.1593 17.588 44.7993 18.412 45.2153 18.676C45.4233 18.804 45.6833 18.872 45.9953 18.88V19H44.8193C44.1393 19 43.5713 18.908 43.1153 18.724C42.6593 18.532 42.2873 18.208 41.9993 17.752C41.8553 17.52 41.6713 17.172 41.4473 16.708C41.2233 16.236 41.0753 15.9 41.0033 15.7C40.7873 15.22 40.5153 14.952 40.1873 14.896V14.776H40.5593C40.9193 14.776 41.2353 14.668 41.5073 14.452C41.7873 14.236 41.9753 13.884 42.0713 13.396C42.1033 13.228 42.1193 13.096 42.1193 13C42.1193 12.344 41.9873 11.872 41.7233 11.584C41.4593 11.288 41.1193 11.136 40.7033 11.128C40.6233 11.128 40.5033 11.128 40.3433 11.128ZM45.9998 18.88C46.2078 18.88 46.3838 18.808 46.5278 18.664C46.6798 18.512 46.7598 18.332 46.7678 18.124V11.464C46.7598 11.256 46.6798 11.08 46.5278 10.936C46.3838 10.792 46.2078 10.72 45.9998 10.72H45.8438V10.6H49.4918L49.4798 10.72H49.3358C49.1278 10.72 48.9478 10.792 48.7958 10.936C48.6438 11.08 48.5678 11.256 48.5678 11.464V18.124C48.5678 18.332 48.6438 18.512 48.7958 18.664C48.9478 18.808 49.1278 18.88 49.3358 18.88H49.4798L49.4918 19H45.8438V18.88H45.9998ZM50.5688 17.884C50.5688 17.308 50.6928 16.816 50.9408 16.408H51.0488C51.0408 16.472 51.0368 16.536 51.0368 16.6C51.0368 17.152 51.2328 17.636 51.6248 18.052C52.0248 18.46 52.5688 18.664 53.2568 18.664C53.7928 18.664 54.2088 18.536 54.5048 18.28C54.8088 18.024 54.9608 17.7 54.9608 17.308C54.9608 16.836 54.6408 16.424 54.0008 16.072L51.9128 14.692C51.4968 14.452 51.1968 14.164 51.0128 13.828C50.8368 13.484 50.7488 13.136 50.7488 12.784C50.7488 12.032 50.9848 11.452 51.4568 11.044C51.9368 10.636 52.5488 10.432 53.2928 10.432C53.7328 10.432 54.2768 10.472 54.9248 10.552H55.6808L55.5248 12.316H55.4048C55.4048 11.9 55.2488 11.568 54.9368 11.32C54.6328 11.064 54.2248 10.936 53.7128 10.936C53.0888 10.936 52.6368 11.128 52.3568 11.512C52.2128 11.696 52.1408 11.904 52.1408 12.136C52.1408 12.52 52.4208 12.876 52.9808 13.204L55.2728 14.692C55.9928 15.108 56.3528 15.72 56.3528 16.528C56.3528 17.384 56.0608 18.04 55.4768 18.496C54.9008 18.944 54.1328 19.168 53.1728 19.168C52.6288 19.168 52.1248 19.104 51.6608 18.976C51.2048 18.84 50.8688 18.66 50.6528 18.436C50.5968 18.284 50.5688 18.1 50.5688 17.884ZM57.4959 18.88C57.7039 18.88 57.8799 18.808 58.0239 18.664C58.1759 18.512 58.2559 18.332 58.2639 18.124V11.44C58.2399 11.16 58.1079 10.952 57.8679 10.816C57.7479 10.752 57.6239 10.72 57.4959 10.72H57.3399V10.6H61.9359C62.1839 10.6 62.4559 10.576 62.7519 10.528C63.0479 10.48 63.2559 10.432 63.3759 10.384V12.484H63.2559V12.34C63.2559 11.98 63.1479 11.692 62.9319 11.476C62.7239 11.252 62.4399 11.132 62.0799 11.116H60.0639V14.608H61.6479C61.9439 14.6 62.1879 14.5 62.3799 14.308C62.5719 14.108 62.6679 13.864 62.6679 13.576V13.468H62.7879V16.24H62.6679V16.144C62.6679 15.744 62.5079 15.448 62.1879 15.256C62.0279 15.168 61.8519 15.12 61.6599 15.112H60.0639V18.484H61.6359C62.2199 18.484 62.7079 18.316 63.0999 17.98C63.4999 17.644 63.7959 17.168 63.9879 16.552H64.1079L63.5559 19H57.3399V18.88H57.4959ZM73.6823 18.88C73.8903 18.88 74.0703 18.808 74.2223 18.664C74.3743 18.52 74.4543 18.344 74.4622 18.136V15.076H70.6823V18.16C70.6823 19.12 70.4383 19.884 69.9503 20.452C69.5663 20.9 69.0143 21.124 68.2943 21.124C68.0623 21.124 67.8103 21.096 67.5383 21.04L67.5143 20.92C68.1063 20.672 68.4863 20.304 68.6543 19.816C68.8063 19.4 68.8823 18.848 68.8823 18.16V11.464C68.8743 11.256 68.7943 11.08 68.6423 10.936C68.4983 10.792 68.3223 10.72 68.1143 10.72H67.9583V10.6H71.6063V10.72H71.4503C71.1623 10.72 70.9463 10.84 70.8023 11.08C70.7303 11.192 70.6903 11.32 70.6823 11.464V14.56H74.4622V11.68C74.4622 10.744 74.7543 10 75.3383 9.448C75.8023 8.992 76.3863 8.764 77.0903 8.764C77.2503 8.764 77.4183 8.776 77.5943 8.8L77.6183 8.92C77.0343 9.128 76.6543 9.496 76.4783 10.024C76.3343 10.456 76.2583 11.008 76.2503 11.68V18.124C76.2583 18.412 76.3863 18.628 76.6343 18.772C76.7543 18.844 76.8863 18.88 77.0303 18.88H77.1743V19H73.5383V18.88H73.6823ZM82.7644 10.432C84.2444 10.432 85.4204 10.824 86.2924 11.608C87.1644 12.392 87.6004 13.456 87.6004 14.8C87.6004 16.144 87.1644 17.208 86.2924 17.992C85.4204 18.776 84.2444 19.168 82.7644 19.168C81.2844 19.168 80.1084 18.776 79.2364 17.992C78.3644 17.208 77.9284 16.144 77.9284 14.8C77.9284 13.912 78.1244 13.14 78.5164 12.484C78.9164 11.82 79.4804 11.312 80.2084 10.96C80.9364 10.608 81.7884 10.432 82.7644 10.432ZM80.6644 17.632C81.1844 18.32 81.8844 18.664 82.7644 18.664C83.6444 18.664 84.3404 18.32 84.8524 17.632C85.3724 16.936 85.6324 15.992 85.6324 14.8C85.6324 14.016 85.5164 13.332 85.2844 12.748C85.0524 12.164 84.7204 11.716 84.2884 11.404C83.8564 11.092 83.3484 10.936 82.7644 10.936C81.8844 10.936 81.1844 11.284 80.6644 11.98C80.1524 12.668 79.8964 13.608 79.8964 14.8C79.8964 15.992 80.1524 16.936 80.6644 17.632ZM92.6697 11.092V18.136C92.6777 18.344 92.7537 18.52 92.8977 18.664C93.0497 18.808 93.2297 18.88 93.4377 18.88H93.5817L93.5937 19H89.9457V18.88H90.1017C90.3017 18.88 90.4737 18.808 90.6177 18.664C90.7697 18.52 90.8537 18.348 90.8697 18.148V11.092H89.2497C88.8817 11.1 88.5897 11.216 88.3737 11.44C88.1577 11.664 88.0497 11.956 88.0497 12.316V12.46H87.9297V10.372C88.0417 10.42 88.2417 10.468 88.5297 10.516C88.8257 10.564 89.0977 10.588 89.3457 10.588H94.1817C94.5737 10.58 94.8937 10.548 95.1417 10.492C95.3897 10.436 95.5417 10.396 95.5977 10.372V12.46H95.4777V12.316C95.4777 11.956 95.3697 11.664 95.1537 11.44C94.9377 11.216 94.6457 11.1 94.2777 11.092H92.6697ZM96.4139 18.88C96.6219 18.88 96.7979 18.808 96.9419 18.664C97.0939 18.512 97.1739 18.332 97.1819 18.124V11.44C97.1579 11.16 97.0259 10.952 96.7859 10.816C96.6659 10.752 96.5419 10.72 96.4139 10.72H96.2579V10.6H100.854C101.102 10.6 101.374 10.576 101.67 10.528C101.966 10.48 102.174 10.432 102.294 10.384V12.484H102.174V12.34C102.174 11.98 102.066 11.692 101.85 11.476C101.642 11.252 101.358 11.132 100.998 11.116H98.9819V14.608H100.566C100.862 14.6 101.106 14.5 101.298 14.308C101.49 14.108 101.586 13.864 101.586 13.576V13.468H101.706V16.24H101.586V16.144C101.586 15.744 101.426 15.448 101.106 15.256C100.946 15.168 100.77 15.12 100.578 15.112H98.9819V18.484H100.554C101.138 18.484 101.626 18.316 102.018 17.98C102.418 17.644 102.714 17.168 102.906 16.552H103.026L102.474 19H96.2579V18.88H96.4139ZM103.937 18.88C104.145 18.88 104.321 18.808 104.465 18.664C104.617 18.512 104.697 18.332 104.705 18.124V11.476C104.697 11.268 104.617 11.092 104.465 10.948C104.321 10.796 104.145 10.72 103.937 10.72H103.781V10.6H107.429L107.417 10.72H107.273C107.065 10.72 106.885 10.796 106.733 10.948C106.581 11.092 106.505 11.268 106.505 11.476V18.484H108.077C108.661 18.484 109.149 18.316 109.541 17.98C109.941 17.644 110.237 17.168 110.429 16.552H110.549L109.997 19H103.781V18.88H103.937Z" fill="#ED9615"/>
</svg>
