<svg width="20" height="20" viewBox="0 0 20 20" fill="none" xmlns="http://www.w3.org/2000/svg">
<path d="M10 0.909088C4.97912 0.909088 0.909119 4.97909 0.909119 10C0.909119 15.0209 4.97912 19.0909 10 19.0909C15.0209 19.0909 19.0909 15.0209 19.0909 10C19.0909 4.97909 15.0209 0.909088 10 0.909088Z" stroke="#ED9615" stroke-width="1.5" stroke-linecap="round" stroke-linejoin="round"/>
<path d="M2.97369 15.7691C2.97369 15.7691 5.00006 13.1818 10.0001 13.1818C15.0001 13.1818 17.0273 15.7691 17.0273 15.7691M10.0001 9.99999C10.7234 9.99999 11.4171 9.71265 11.9285 9.20119C12.44 8.68972 12.7273 7.99603 12.7273 7.27271C12.7273 6.5494 12.44 5.8557 11.9285 5.34424C11.4171 4.83278 10.7234 4.54544 10.0001 4.54544C9.27674 4.54544 8.58305 4.83278 8.07158 5.34424C7.56012 5.8557 7.27278 6.5494 7.27278 7.27271C7.27278 7.99603 7.56012 8.68972 8.07158 9.20119C8.58305 9.71265 9.27674 9.99999 10.0001 9.99999Z" stroke="#ED9615" stroke-width="1.5" stroke-linecap="round" stroke-linejoin="round"/>
</svg>
