<svg width="120" height="120" viewBox="0 0 120 120" fill="none" xmlns="http://www.w3.org/2000/svg">
<path d="M41.25 23.75H78.75C82.875 23.75 86.25 27.125 86.25 31.25V68.75C86.25 72.875 82.875 76.25 78.75 76.25H41.25C37.125 76.25 33.75 72.875 33.75 68.75V31.25C33.75 27.125 37.125 23.75 41.25 23.75Z" fill="#1D00CF"/>
<path fill-rule="evenodd" clip-rule="evenodd" d="M54.75 50.1875V68.375C54.75 68.5625 54.9375 68.9375 55.3125 68.9375H62.625C63 68.9375 63.1875 68.75 63.1875 68.375V50H68.4375C68.625 50 69 49.8125 69 49.625L69.5625 44C69.5625 43.625 69.375 43.4375 69 43.4375H63.1875V39.5C63.1875 38.5625 63.9375 37.8125 65.0625 37.8125H69.1875C69.5625 37.8125 69.75 37.625 69.75 37.25V31.8125C69.375 31.4375 69.1875 31.25 68.8125 31.25H62.0625C58.125 31.25 54.75 34.25 54.75 38V43.4375H51.1875C50.8125 43.4375 50.625 43.625 50.625 44V49.625C50.625 49.8125 50.8125 50.1875 51.1875 50.1875H54.75Z" fill="white"/>
<path d="M30.3428 99H28.2578V89.0059H33.9863V90.7422H30.3428V93.3193H33.7334V95.0488H30.3428V99ZM38.9082 91.2002C39.9336 91.2002 40.7197 91.4235 41.2666 91.8701C41.8135 92.3167 42.0869 92.9958 42.0869 93.9072V99H40.6309L40.2275 97.9609H40.1729C39.9541 98.2344 39.7308 98.4577 39.5029 98.6309C39.2751 98.804 39.013 98.9316 38.7168 99.0137C38.4206 99.0957 38.0605 99.1367 37.6367 99.1367C37.1855 99.1367 36.7799 99.0501 36.4199 98.877C36.0645 98.7038 35.7842 98.4395 35.5791 98.084C35.374 97.724 35.2715 97.2682 35.2715 96.7168C35.2715 95.9056 35.5563 95.3086 36.126 94.9258C36.6956 94.5384 37.5501 94.3242 38.6895 94.2832L40.0156 94.2422V93.9072C40.0156 93.5062 39.9108 93.2122 39.7012 93.0254C39.4915 92.8385 39.1999 92.7451 38.8262 92.7451C38.457 92.7451 38.0947 92.7975 37.7393 92.9023C37.3838 93.0072 37.0283 93.1393 36.6729 93.2988L35.9824 91.8906C36.388 91.6764 36.8415 91.5078 37.3428 91.3848C37.8486 91.2617 38.3704 91.2002 38.9082 91.2002ZM40.0156 95.459L39.209 95.4863C38.5345 95.5046 38.0651 95.6253 37.8008 95.8486C37.541 96.0719 37.4111 96.3659 37.4111 96.7305C37.4111 97.0495 37.5046 97.2773 37.6914 97.4141C37.8783 97.5462 38.1221 97.6123 38.4229 97.6123C38.8695 97.6123 39.2454 97.4801 39.5508 97.2158C39.8607 96.9515 40.0156 96.5755 40.0156 96.0879V95.459ZM47.3438 99.1367C46.5872 99.1367 45.9424 99 45.4092 98.7266C44.876 98.4486 44.4704 98.0202 44.1924 97.4414C43.9144 96.8626 43.7754 96.1221 43.7754 95.2197C43.7754 94.2855 43.9326 93.5244 44.2471 92.9365C44.5661 92.3441 45.0059 91.9089 45.5664 91.6309C46.1315 91.3529 46.7855 91.2139 47.5283 91.2139C48.057 91.2139 48.5127 91.2663 48.8955 91.3711C49.2829 91.4714 49.6201 91.5921 49.9072 91.7334L49.292 93.3467C48.9639 93.2145 48.6585 93.1074 48.376 93.0254C48.0934 92.9388 47.8109 92.8955 47.5283 92.8955C47.1637 92.8955 46.8607 92.9821 46.6191 93.1553C46.3776 93.3239 46.1976 93.5791 46.0791 93.9209C45.9606 94.2627 45.9014 94.6911 45.9014 95.2061C45.9014 95.7119 45.9652 96.1312 46.0928 96.4639C46.2204 96.7965 46.4049 97.0449 46.6465 97.209C46.888 97.3685 47.182 97.4482 47.5283 97.4482C47.9613 97.4482 48.3464 97.3913 48.6836 97.2773C49.0208 97.1589 49.349 96.9948 49.668 96.7852V98.5693C49.349 98.7699 49.014 98.9134 48.6631 99C48.3167 99.0911 47.877 99.1367 47.3438 99.1367ZM54.5967 91.2139C55.3031 91.2139 55.9115 91.3506 56.4219 91.624C56.9323 91.8929 57.3265 92.2848 57.6045 92.7998C57.8825 93.3148 58.0215 93.9437 58.0215 94.6865V95.6982H53.0928C53.1156 96.2861 53.291 96.7487 53.6191 97.0859C53.9518 97.4186 54.4121 97.585 55 97.585C55.4876 97.585 55.9342 97.5348 56.3398 97.4346C56.7454 97.3343 57.1624 97.1839 57.5908 96.9834V98.5967C57.2126 98.7835 56.8161 98.9202 56.4014 99.0068C55.9912 99.0934 55.4922 99.1367 54.9043 99.1367C54.1387 99.1367 53.4596 98.9954 52.8672 98.7129C52.2793 98.4303 51.8167 97.9997 51.4795 97.4209C51.1468 96.8421 50.9805 96.113 50.9805 95.2334C50.9805 94.3402 51.1309 93.5973 51.4316 93.0049C51.737 92.4079 52.1608 91.9613 52.7031 91.665C53.2454 91.3643 53.8766 91.2139 54.5967 91.2139ZM54.6104 92.6973C54.2048 92.6973 53.8675 92.8271 53.5986 93.0869C53.3343 93.3467 53.1816 93.7546 53.1406 94.3105H56.0664C56.0618 94.0007 56.0049 93.7249 55.8955 93.4834C55.7907 93.2419 55.6312 93.0505 55.417 92.9092C55.2074 92.7679 54.9385 92.6973 54.6104 92.6973ZM61.8018 88.3633V90.8379C61.8018 91.125 61.7926 91.4098 61.7744 91.6924C61.7607 91.9749 61.7425 92.1937 61.7197 92.3486H61.8018C62.0023 92.0342 62.2757 91.7676 62.6221 91.5488C62.9684 91.3255 63.4173 91.2139 63.9688 91.2139C64.8255 91.2139 65.5205 91.5488 66.0537 92.2188C66.5869 92.8887 66.8535 93.8708 66.8535 95.165C66.8535 96.0355 66.7305 96.7669 66.4844 97.3594C66.2383 97.9473 65.8942 98.3916 65.4521 98.6924C65.0101 98.9886 64.4974 99.1367 63.9141 99.1367C63.3535 99.1367 62.9115 99.0365 62.5879 98.8359C62.2643 98.6354 62.0023 98.4098 61.8018 98.1592H61.6582L61.3096 99H59.7168V88.3633H61.8018ZM63.2988 92.8818C62.9342 92.8818 62.6449 92.957 62.4307 93.1074C62.2165 93.2578 62.0592 93.4834 61.959 93.7842C61.8633 94.085 61.8109 94.4655 61.8018 94.9258V95.1514C61.8018 95.8942 61.9111 96.4639 62.1299 96.8604C62.3486 97.2523 62.7474 97.4482 63.3262 97.4482C63.7546 97.4482 64.0941 97.25 64.3447 96.8535C64.5999 96.457 64.7275 95.8851 64.7275 95.1377C64.7275 94.3903 64.5999 93.8275 64.3447 93.4492C64.0895 93.071 63.7409 92.8818 63.2988 92.8818ZM75.5215 95.165C75.5215 95.8031 75.4349 96.3682 75.2617 96.8604C75.0931 97.3525 74.8447 97.7695 74.5166 98.1113C74.193 98.4486 73.8011 98.7038 73.3408 98.877C72.8851 99.0501 72.3701 99.1367 71.7959 99.1367C71.2581 99.1367 70.7637 99.0501 70.3125 98.877C69.8659 98.7038 69.4762 98.4486 69.1436 98.1113C68.8154 97.7695 68.5602 97.3525 68.3779 96.8604C68.2002 96.3682 68.1113 95.8031 68.1113 95.165C68.1113 94.3174 68.2617 93.5996 68.5625 93.0117C68.8633 92.4238 69.2917 91.9772 69.8477 91.6719C70.4036 91.3665 71.0667 91.2139 71.8369 91.2139C72.5524 91.2139 73.1859 91.3665 73.7373 91.6719C74.2933 91.9772 74.7285 92.4238 75.043 93.0117C75.362 93.5996 75.5215 94.3174 75.5215 95.165ZM70.2373 95.165C70.2373 95.6663 70.292 96.0879 70.4014 96.4297C70.5107 96.7715 70.6816 97.029 70.9141 97.2021C71.1465 97.3753 71.4495 97.4619 71.8232 97.4619C72.1924 97.4619 72.4909 97.3753 72.7188 97.2021C72.9512 97.029 73.1198 96.7715 73.2246 96.4297C73.334 96.0879 73.3887 95.6663 73.3887 95.165C73.3887 94.6592 73.334 94.2399 73.2246 93.9072C73.1198 93.57 72.9512 93.3171 72.7188 93.1484C72.4863 92.9798 72.1833 92.8955 71.8096 92.8955C71.2581 92.8955 70.8571 93.0846 70.6064 93.4629C70.3604 93.8411 70.2373 94.4085 70.2373 95.165ZM84.1895 95.165C84.1895 95.8031 84.1029 96.3682 83.9297 96.8604C83.7611 97.3525 83.5127 97.7695 83.1846 98.1113C82.861 98.4486 82.4691 98.7038 82.0088 98.877C81.5531 99.0501 81.0381 99.1367 80.4639 99.1367C79.9261 99.1367 79.4316 99.0501 78.9805 98.877C78.5339 98.7038 78.1442 98.4486 77.8115 98.1113C77.4834 97.7695 77.2282 97.3525 77.0459 96.8604C76.8682 96.3682 76.7793 95.8031 76.7793 95.165C76.7793 94.3174 76.9297 93.5996 77.2305 93.0117C77.5312 92.4238 77.9596 91.9772 78.5156 91.6719C79.0716 91.3665 79.7347 91.2139 80.5049 91.2139C81.2204 91.2139 81.8538 91.3665 82.4053 91.6719C82.9613 91.9772 83.3965 92.4238 83.7109 93.0117C84.0299 93.5996 84.1895 94.3174 84.1895 95.165ZM78.9053 95.165C78.9053 95.6663 78.96 96.0879 79.0693 96.4297C79.1787 96.7715 79.3496 97.029 79.582 97.2021C79.8145 97.3753 80.1175 97.4619 80.4912 97.4619C80.8604 97.4619 81.1589 97.3753 81.3867 97.2021C81.6191 97.029 81.7878 96.7715 81.8926 96.4297C82.002 96.0879 82.0566 95.6663 82.0566 95.165C82.0566 94.6592 82.002 94.2399 81.8926 93.9072C81.7878 93.57 81.6191 93.3171 81.3867 93.1484C81.1543 92.9798 80.8512 92.8955 80.4775 92.8955C79.9261 92.8955 79.5251 93.0846 79.2744 93.4629C79.0283 93.8411 78.9053 94.4085 78.9053 95.165ZM87.9971 88.3633V93.1211C87.9971 93.4082 87.9857 93.6953 87.9629 93.9824C87.9401 94.2695 87.915 94.5566 87.8877 94.8438H87.915C88.0563 94.6432 88.1999 94.445 88.3457 94.249C88.4961 94.0531 88.6556 93.8639 88.8242 93.6816L90.9639 91.3574H93.3154L90.2803 94.6729L93.5 99H91.0938L88.8926 95.9033L87.9971 96.6211V99H85.9121V88.3633H87.9971Z" fill="black"/>
</svg>
