<svg width="120" height="120" viewBox="0 0 120 120" fill="none" xmlns="http://www.w3.org/2000/svg">
<path d="M73.2809 34.2042C71.6074 34.2042 70.3523 35.4593 70.3523 37.1328C70.3523 38.8062 71.6074 40.0613 73.2809 40.0613C74.9544 40.0613 76.2095 38.8062 76.2095 37.1328C76.2095 35.4593 74.9544 34.2042 73.2809 34.2042Z" fill="#ED153C"/>
<path d="M60.1022 37.9695C53.1991 37.9695 47.7603 43.6175 47.7603 50.3114C47.7603 57.0053 53.4082 62.6533 60.1022 62.6533C66.7961 62.6533 72.4441 57.0053 72.4441 50.3114C72.4441 43.6175 67.0053 37.9695 60.1022 37.9695ZM60.1022 58.2604C55.7093 58.2604 52.1531 54.7043 52.1531 50.3114C52.1531 45.9185 55.7093 42.3624 60.1022 42.3624C64.4951 42.3624 68.0512 45.9185 68.0512 50.3114C68.0512 54.7043 64.4951 58.2604 60.1022 58.2604Z" fill="#ED153C"/>
<path d="M70.1431 25H50.2705C41.6939 25 35 31.6939 35 40.0613V59.9339C35 68.3013 41.6939 74.9952 50.0613 74.9952H69.9339C78.3013 74.9952 84.9952 68.3013 84.9952 59.9339V40.0613C85.2044 31.6939 78.5105 25 70.1431 25ZM80.3932 60.1431C80.3932 65.7911 75.7911 70.6023 69.9339 70.6023H50.0613C44.4133 70.6023 39.6021 66.0003 39.6021 60.1431V40.2705C39.6021 34.6225 44.2041 29.8113 50.0613 29.8113H69.9339C75.5819 29.8113 80.3932 34.4133 80.3932 40.2705V60.1431Z" fill="#ED153C"/>
<path d="M25.2578 102V92.0059H27.377V102H25.2578ZM34.0693 94.2139C34.8851 94.2139 35.5413 94.4372 36.0381 94.8838C36.5348 95.3258 36.7832 96.0368 36.7832 97.0166V102H34.6982V97.5361C34.6982 96.9893 34.598 96.5768 34.3975 96.2988C34.2015 96.0208 33.8916 95.8818 33.4678 95.8818C32.8298 95.8818 32.3945 96.0983 32.1621 96.5312C31.9297 96.9642 31.8135 97.5885 31.8135 98.4043V102H29.7285V94.3574H31.3213L31.6016 95.335H31.7178C31.8818 95.0706 32.0846 94.8564 32.3262 94.6924C32.5723 94.5283 32.8434 94.4076 33.1396 94.3301C33.4404 94.2526 33.7503 94.2139 34.0693 94.2139ZM44.2617 99.7305C44.2617 100.25 44.1387 100.69 43.8926 101.05C43.651 101.405 43.2887 101.676 42.8057 101.863C42.3226 102.046 41.721 102.137 41.001 102.137C40.4678 102.137 40.0098 102.103 39.627 102.034C39.2487 101.966 38.8659 101.852 38.4785 101.692V99.9697C38.8932 100.157 39.3376 100.312 39.8115 100.435C40.29 100.553 40.7093 100.612 41.0693 100.612C41.4749 100.612 41.7643 100.553 41.9375 100.435C42.1152 100.312 42.2041 100.152 42.2041 99.9561C42.2041 99.8285 42.1676 99.7145 42.0947 99.6143C42.0264 99.5094 41.876 99.3932 41.6436 99.2656C41.4111 99.1335 41.0465 98.9626 40.5498 98.7529C40.0713 98.5524 39.6771 98.3496 39.3672 98.1445C39.0618 97.9395 38.834 97.6979 38.6836 97.4199C38.5378 97.1374 38.4648 96.7796 38.4648 96.3467C38.4648 95.6403 38.7383 95.1094 39.2852 94.7539C39.8366 94.3939 40.5726 94.2139 41.4932 94.2139C41.9671 94.2139 42.4183 94.2617 42.8467 94.3574C43.2796 94.4531 43.724 94.6058 44.1797 94.8154L43.5508 96.3193C43.1725 96.1553 42.8148 96.0208 42.4775 95.916C42.1449 95.8112 41.8053 95.7588 41.459 95.7588C41.1536 95.7588 40.9235 95.7998 40.7686 95.8818C40.6136 95.9639 40.5361 96.0892 40.5361 96.2578C40.5361 96.3809 40.5749 96.4902 40.6523 96.5859C40.7344 96.6816 40.8893 96.7887 41.1172 96.9072C41.3496 97.0212 41.6891 97.1693 42.1357 97.3516C42.5687 97.5293 42.9447 97.7161 43.2637 97.9121C43.5827 98.1035 43.8288 98.3428 44.002 98.6299C44.1751 98.9124 44.2617 99.2793 44.2617 99.7305ZM49.1084 100.476C49.3363 100.476 49.5573 100.453 49.7715 100.407C49.9902 100.362 50.2067 100.305 50.4209 100.236V101.788C50.1976 101.888 49.9196 101.97 49.5869 102.034C49.2588 102.103 48.8988 102.137 48.5068 102.137C48.0511 102.137 47.641 102.064 47.2764 101.918C46.9163 101.768 46.6315 101.51 46.4219 101.146C46.2168 100.776 46.1143 100.264 46.1143 99.6074V95.9229H45.1162V95.041L46.2646 94.3438L46.8662 92.7305H48.1992V94.3574H50.3389V95.9229H48.1992V99.6074C48.1992 99.8991 48.2812 100.118 48.4453 100.264C48.6139 100.405 48.835 100.476 49.1084 100.476ZM55.1035 94.2002C56.1289 94.2002 56.915 94.4235 57.4619 94.8701C58.0088 95.3167 58.2822 95.9958 58.2822 96.9072V102H56.8262L56.4229 100.961H56.3682C56.1494 101.234 55.9261 101.458 55.6982 101.631C55.4704 101.804 55.2083 101.932 54.9121 102.014C54.6159 102.096 54.2559 102.137 53.832 102.137C53.3809 102.137 52.9753 102.05 52.6152 101.877C52.2598 101.704 51.9795 101.439 51.7744 101.084C51.5693 100.724 51.4668 100.268 51.4668 99.7168C51.4668 98.9056 51.7516 98.3086 52.3213 97.9258C52.891 97.5384 53.7454 97.3242 54.8848 97.2832L56.2109 97.2422V96.9072C56.2109 96.5062 56.1061 96.2122 55.8965 96.0254C55.6868 95.8385 55.3952 95.7451 55.0215 95.7451C54.6523 95.7451 54.29 95.7975 53.9346 95.9023C53.5791 96.0072 53.2236 96.1393 52.8682 96.2988L52.1777 94.8906C52.5833 94.6764 53.0368 94.5078 53.5381 94.3848C54.0439 94.2617 54.5658 94.2002 55.1035 94.2002ZM56.2109 98.459L55.4043 98.4863C54.7298 98.5046 54.2604 98.6253 53.9961 98.8486C53.7363 99.0719 53.6064 99.3659 53.6064 99.7305C53.6064 100.049 53.6999 100.277 53.8867 100.414C54.0736 100.546 54.3174 100.612 54.6182 100.612C55.0648 100.612 55.4408 100.48 55.7461 100.216C56.056 99.9515 56.2109 99.5755 56.2109 99.0879V98.459ZM62.6709 105.363C61.6045 105.363 60.7887 105.176 60.2236 104.803C59.6631 104.434 59.3828 103.914 59.3828 103.244C59.3828 102.784 59.5264 102.399 59.8135 102.089C60.1006 101.779 60.5221 101.558 61.0781 101.426C60.8639 101.335 60.6771 101.187 60.5176 100.981C60.3581 100.772 60.2783 100.551 60.2783 100.318C60.2783 100.027 60.3626 99.7852 60.5312 99.5938C60.6999 99.3978 60.9437 99.2064 61.2627 99.0195C60.8617 98.8464 60.5426 98.5684 60.3057 98.1855C60.0732 97.8027 59.957 97.3516 59.957 96.832C59.957 96.276 60.0778 95.8044 60.3193 95.417C60.5654 95.0251 60.9209 94.7266 61.3857 94.5215C61.8551 94.3164 62.4248 94.2139 63.0947 94.2139C63.236 94.2139 63.4001 94.223 63.5869 94.2412C63.7738 94.2594 63.9447 94.2799 64.0996 94.3027C64.2591 94.3255 64.3662 94.3438 64.4209 94.3574H67.0869V95.417L65.8906 95.7246C66 95.8932 66.082 96.0732 66.1367 96.2646C66.1914 96.4561 66.2188 96.6589 66.2188 96.873C66.2188 97.6934 65.9316 98.3337 65.3574 98.7939C64.7878 99.2497 63.9948 99.4775 62.9785 99.4775C62.737 99.4639 62.5091 99.4456 62.2949 99.4229C62.1901 99.5049 62.1104 99.5915 62.0557 99.6826C62.001 99.7738 61.9736 99.8695 61.9736 99.9697C61.9736 100.07 62.0146 100.154 62.0967 100.223C62.1833 100.286 62.3109 100.337 62.4795 100.373C62.6527 100.405 62.8669 100.421 63.1221 100.421H64.4209C65.2594 100.421 65.8975 100.601 66.335 100.961C66.777 101.321 66.998 101.85 66.998 102.547C66.998 103.44 66.6243 104.133 65.877 104.625C65.1341 105.117 64.0654 105.363 62.6709 105.363ZM62.7598 104.003C63.2565 104.003 63.6826 103.955 64.0381 103.859C64.3981 103.768 64.6738 103.636 64.8652 103.463C65.0566 103.294 65.1523 103.091 65.1523 102.854C65.1523 102.663 65.0954 102.51 64.9814 102.396C64.8721 102.287 64.7035 102.21 64.4756 102.164C64.2523 102.118 63.9652 102.096 63.6143 102.096H62.5342C62.279 102.096 62.0488 102.137 61.8438 102.219C61.6432 102.301 61.4837 102.415 61.3652 102.561C61.2467 102.711 61.1875 102.884 61.1875 103.08C61.1875 103.367 61.3242 103.593 61.5977 103.757C61.8757 103.921 62.263 104.003 62.7598 104.003ZM63.0947 98.2061C63.4867 98.2061 63.7738 98.0853 63.9561 97.8438C64.1383 97.6022 64.2295 97.2741 64.2295 96.8594C64.2295 96.3991 64.1338 96.055 63.9424 95.8271C63.7555 95.5947 63.473 95.4785 63.0947 95.4785C62.7119 95.4785 62.4248 95.5947 62.2334 95.8271C62.042 96.055 61.9463 96.3991 61.9463 96.8594C61.9463 97.2741 62.0397 97.6022 62.2266 97.8438C62.418 98.0853 62.7074 98.2061 63.0947 98.2061ZM72.6172 94.2139C72.722 94.2139 72.8428 94.2207 72.9795 94.2344C73.1208 94.2435 73.2347 94.2572 73.3213 94.2754L73.1641 96.2305C73.0957 96.2077 72.9977 96.1917 72.8701 96.1826C72.7471 96.1689 72.64 96.1621 72.5488 96.1621C72.2799 96.1621 72.0179 96.1963 71.7627 96.2646C71.512 96.333 71.2865 96.4447 71.0859 96.5996C70.8854 96.75 70.7259 96.9505 70.6074 97.2012C70.4935 97.4473 70.4365 97.7503 70.4365 98.1104V102H68.3516V94.3574H69.9307L70.2383 95.6426H70.3408C70.4912 95.3828 70.6781 95.1458 70.9014 94.9316C71.1292 94.7129 71.3867 94.5397 71.6738 94.4121C71.9655 94.2799 72.2799 94.2139 72.6172 94.2139ZM77.8398 94.2002C78.8652 94.2002 79.6514 94.4235 80.1982 94.8701C80.7451 95.3167 81.0186 95.9958 81.0186 96.9072V102H79.5625L79.1592 100.961H79.1045C78.8857 101.234 78.6624 101.458 78.4346 101.631C78.2067 101.804 77.9447 101.932 77.6484 102.014C77.3522 102.096 76.9922 102.137 76.5684 102.137C76.1172 102.137 75.7116 102.05 75.3516 101.877C74.9961 101.704 74.7158 101.439 74.5107 101.084C74.3057 100.724 74.2031 100.268 74.2031 99.7168C74.2031 98.9056 74.488 98.3086 75.0576 97.9258C75.6273 97.5384 76.4818 97.3242 77.6211 97.2832L78.9473 97.2422V96.9072C78.9473 96.5062 78.8424 96.2122 78.6328 96.0254C78.4232 95.8385 78.1315 95.7451 77.7578 95.7451C77.3887 95.7451 77.0264 95.7975 76.6709 95.9023C76.3154 96.0072 75.96 96.1393 75.6045 96.2988L74.9141 94.8906C75.3197 94.6764 75.7731 94.5078 76.2744 94.3848C76.7803 94.2617 77.3021 94.2002 77.8398 94.2002ZM78.9473 98.459L78.1406 98.4863C77.4661 98.5046 76.9967 98.6253 76.7324 98.8486C76.4727 99.0719 76.3428 99.3659 76.3428 99.7305C76.3428 100.049 76.4362 100.277 76.623 100.414C76.8099 100.546 77.0537 100.612 77.3545 100.612C77.8011 100.612 78.1771 100.48 78.4824 100.216C78.7923 99.9515 78.9473 99.5755 78.9473 99.0879V98.459ZM92.1475 94.2139C93.0133 94.2139 93.6673 94.4372 94.1094 94.8838C94.556 95.3258 94.7793 96.0368 94.7793 97.0166V102H92.6875V97.5361C92.6875 96.9893 92.5941 96.5768 92.4072 96.2988C92.2204 96.0208 91.931 95.8818 91.5391 95.8818C90.9876 95.8818 90.5957 96.0801 90.3633 96.4766C90.1309 96.8685 90.0146 97.4313 90.0146 98.165V102H87.9297V97.5361C87.9297 97.1715 87.8887 96.8662 87.8066 96.6201C87.7246 96.374 87.5993 96.1895 87.4307 96.0664C87.262 95.9434 87.0456 95.8818 86.7812 95.8818C86.3939 95.8818 86.0885 95.9798 85.8652 96.1758C85.6465 96.3672 85.4893 96.652 85.3936 97.0303C85.3024 97.404 85.2568 97.862 85.2568 98.4043V102H83.1719V94.3574H84.7646L85.0449 95.335H85.1611C85.3161 95.0706 85.5098 94.8564 85.7422 94.6924C85.9792 94.5283 86.2389 94.4076 86.5215 94.3301C86.804 94.2526 87.0911 94.2139 87.3828 94.2139C87.9434 94.2139 88.4173 94.305 88.8047 94.4873C89.1966 94.6696 89.4974 94.9521 89.707 95.335H89.8916C90.1195 94.943 90.4408 94.6582 90.8555 94.4805C91.2747 94.3027 91.7054 94.2139 92.1475 94.2139Z" fill="black"/>
</svg>
